<svg version="1.0" xmlns="http://www.w3.org/2000/svg"
 width="50.000000pt" height="50.000000pt" viewBox="0 0 50.000000 50.000000"
 preserveAspectRatio="xMidYMid meet">

<g transform="translate(0.000000,50.000000) scale(0.100000,-0.100000)"
fill="#000000" stroke="none">
<path d="M36 444 c-13 -12 -16 -41 -16 -154 0 -153 6 -170 61 -170 34 0 39
-22 12 -52 -9 -10 -14 -21 -10 -24 13 -14 68 10 96 42 l30 34 120 0 c95 0 123
3 135 16 23 23 23 285 0 308 -23 24 -405 24 -428 0z m419 -154 l0 -145 -130
-3 -130 -3 -20 -31 c-29 -45 -45 -47 -45 -4 0 34 -1 35 -42 38 l-43 3 -3 134
c-1 74 0 141 2 148 4 11 48 13 208 11 l203 -3 0 -145z"/>
</g>
</svg>
