<svg version="1.0" xmlns="http://www.w3.org/2000/svg"
 width="50.000000pt" height="50.000000pt" viewBox="0 0 20.000000 20.000000"
 preserveAspectRatio="xMidYMid meet">

<g transform="translate(0.000000,50.000000) scale(0.100000,-0.100000)"
fill="#000000" stroke="none">
<path d="M217 387 l-77 -102 51 -3 51 -3 -7 -47 c-14 -100 -68 -177 -145 -203
-47 -17 -37 -33 15 -26 116 16 210 91 239 188 9 29 16 61 16 70 0 14 10 19 50
21 l51 3 -77 100 c-41 55 -79 101 -82 102 -4 2 -42 -43 -85 -100z m145 -5 l57
-77 -38 -3 c-38 -3 -38 -3 -44 -55 -9 -76 -44 -136 -101 -175 -60 -40 -85 -42
-49 -5 37 40 62 102 69 171 l7 61 -41 3 -41 3 57 77 c31 43 59 77 62 77 3 0
31 -34 62 -77z"/>
</g>
</svg>
